<svg height="512pt" preserveAspectRatio="xMidYMid meet" viewBox="0 0 512 512" width="512pt" xmlns="http://www.w3.org/2000/svg"><path d="m1059 4243c-4-73 0-215 5-220 8-8 9-8 102-17 39-4 80-8 90-10 11-2 55-7 99-10 44-4 92-9 107-12l27-5 3-147c5-261 3-2660-2-2666-6-5-27-8-150-22-36-3-76-8-90-9-62-7-166-18-177-18-14 0-15-3-15-122 0-47 1-93 1-103 1-17 36-18 769-18l767 1 3 118c2 131 8 123-78 131-105 10-275 28-295 31-11 2-29 4-40 4-26 1-23-55-28 689l-4 593 179-2c266-2 383-35 480-134 87-87 133-208 184-475 3-14 23-110 45-215 22-104 49-233 59-285 11-52 24-110 29-127 5-18 8-33 6-33-8 0 45-122 66-152 53-77 169-157 249-173 14-3 36-7 50-10s36-7 50-11c82-19 439-7 555 20 91 20 115 30 116 45 4 102 0 214-7 220-5 5-43 11-84 15-41 3-84 8-95 10s-60 7-110 11c-49 4-92 8-93 10-4 4-80 310-88 355-14 75-90 379-116 465-49 165-117 285-213 379-85 84-200 143-344 180-95 24-97 29-21 41 114 19 285 84 405 153 114 67 247 202 302 307 66 127 87 216 86 370 0 100-5 148-22 210-70 258-248 438-547 551-71 26-244 69-324 79-30 4-64 9-75 12s-424 8-917 10c-862 4-898 4-899-14zm1666-268c301-64 465-274 467-600 1-238-69-412-215-533-93-76-246-134-391-148-56-5-372-9-422-5-14 1-9 1289 5 1308 0 1 108 0 239-2 175-2 258-7 317-20z" transform="matrix(.1 0 0 -.1 0 512)"/></svg>